<?xml version="1.0" encoding="UTF-8"?>
<svg id="Livello_1" xmlns="http://www.w3.org/2000/svg" version="1.1" viewBox="0 0 256 256">
  <path d="M220.39,120.23l-62.4-23.1-23.3-76.36c-1.14-3.7-5.06-5.78-8.76-4.65-2.22.68-3.96,2.42-4.65,4.65l-23.29,76.36-62.4,23.1c-3.63,1.34-5.49,5.38-4.15,9.01.71,1.92,2.22,3.44,4.15,4.15l62.37,23.09,23.31,78.69c1.1,3.71,5,5.83,8.71,4.73,2.28-.67,4.06-2.46,4.73-4.74l23.31-78.69,62.38-23.09c3.63-1.33,5.5-5.35,4.17-8.98-.71-1.94-2.24-3.47-4.18-4.17" fill="#ff2d17"/>
  <path d="M245.4,188.17l-16.23-6-6.31-23.14c-.99-3.74-4.82-5.96-8.56-4.97-2.43.64-4.32,2.54-4.97,4.96l-6.31,23.14-16.22,6c-3.63,1.34-5.49,5.38-4.15,9.01.71,1.92,2.22,3.44,4.15,4.15l16.13,5.98,6.36,25.4c.94,3.76,4.75,6.04,8.51,5.09,2.51-.63,4.47-2.59,5.09-5.1l6.36-25.4,16.13-5.98c3.63-1.32,5.5-5.33,4.18-8.96-.71-1.94-2.24-3.47-4.18-4.18M69.17,45.31l-16.58-6.14-6.14-16.58c-1.33-3.63-5.35-5.5-8.99-4.17-1.93.71-3.46,2.23-4.17,4.17l-6.14,16.58-16.58,6.14c-3.63,1.34-5.49,5.38-4.15,9.01.71,1.92,2.22,3.44,4.15,4.15l16.58,6.14,6.14,16.58c1.34,3.63,5.38,5.49,9.01,4.15,1.92-.71,3.44-2.22,4.15-4.15l6.14-16.58,16.58-6.14c3.63-1.34,5.49-5.38,4.15-9.01-.71-1.92-2.22-3.44-4.15-4.15" fill="#ff5a1f"/>
  <path d="M165.41,124.85l-25.26-9.35-9.43-30.92c-.46-1.5-2.05-2.34-3.55-1.88-.9.28-1.6.98-1.88,1.88l-9.43,30.92-25.27,9.35c-1.47.54-2.22,2.18-1.68,3.65.29.78.9,1.39,1.68,1.68l25.25,9.35,9.44,31.86c.45,1.5,2.02,2.36,3.53,1.92.92-.27,1.64-1,1.92-1.92l9.44-31.86,25.26-9.35c1.47-.54,2.23-2.16,1.69-3.63-.29-.78-.91-1.4-1.69-1.69" fill="#ffa58f"/>
</svg>
