<svg version="1.1" id="Header" xmlns="http://www.w3.org/2000/svg" x="0" y="0" viewBox="0 0 781.9 79.8" style="enable-background:new 0 0 781.9 79.8" xml:space="preserve">
    <style>
        .st0{fill:#666}
    </style>
    <g id="RoccobotOS">
        <path id="S" class="st0" d="M672 30.3c-6.5 0-11.1 2.6-11.1 7s5.1 5.6 12.1 6.8l3.3.5c10.5 1.7 18.6 6.2 18.6 16.3 0 12.9-11.3 19-23.9 19-8.9 0-18.3-2.6-24.6-7.6l6-9.4c4.2 3.3 11 6.3 18.6 6.3 6.5 0 11.5-2.5 11.5-7.1 0-4-4.2-5.5-12.4-6.8l-3.7-.6c-10.3-1.7-17.8-6.1-17.8-16.7 0-12.2 10.9-18.5 23.3-18.5 8.2 0 14.9 1.8 22.3 6.2l-5.5 9.5c-4.8-2.8-10.3-4.9-16.7-4.9z"/>
        <path id="O_00000091728043983936159350000012657176487310750901_" class="st0" d="M640.6 49.7c0 17.5-12.7 30.3-30.7 30.3s-30.6-12.8-30.6-30.3 12.6-30.3 30.6-30.3 30.7 12.9 30.7 30.3zm-49.2 0c0 11.3 7.8 19.1 18.5 19.1s18.5-7.8 18.5-19.1-7.7-19.1-18.5-19.1-18.5 7.8-18.5 19.1z"/>
        <path id="T" class="st0" d="M549.3 27.5v51.4H542V27.5h-20v-6.9h47.2v6.9h-19.9z"/>
        <path id="O_00000075867352756677011540000006054830198999096967_" class="st0" d="M517.4 49.7c0 17.5-12.7 30-30.2 30S457 67.3 457 49.7s12.7-30 30.2-30 30.2 12.6 30.2 30zm-52.7 0c0 13.7 9.7 23 22.6 23 12.9 0 22.6-9.3 22.6-23s-9.7-23-22.6-23c-12.9 0-22.6 9.3-22.6 23z"/>
        <path id="B" class="st0" d="M447.8 36.1c0 6.4-3.4 10.9-8.3 12.8 5.6 2 9.6 6.6 9.6 13.8 0 11.4-8.4 16.3-21.4 16.3H404V20.6h22.6c12.3 0 21.2 4.3 21.2 15.5zm-36.5 9.8h15c7.7 0 13.8-1.7 13.8-9.4s-6.1-9.2-13.9-9.2h-14.9v18.6zm0 26.1h16.1c8.4 0 14-2.2 14-9.7 0-7.5-5.6-9.5-14-9.5h-16.1V72z"/>
        <path id="O_00000018204292810535883340000008104297253348545409_" class="st0" d="M392.8 49.7c0 17.5-12.7 30-30.2 30s-30.2-12.5-30.2-30 12.7-30 30.2-30 30.2 12.6 30.2 30zm-52.8 0c0 13.7 9.7 23 22.6 23s22.6-9.3 22.6-23-9.7-23-22.6-23S340 36 340 49.7z"/>
        <path id="C_00000153703844946327127140000001822668283264003725_" class="st0" d="m324.8 31.8-6.1 4.1c-3.8-5.7-10.1-9.2-17.7-9.2-12.9 0-22.6 9.3-22.6 23s9.7 23 22.6 23c7.5 0 13.9-3.4 17.7-9.1l6 4.4c-4.9 7.3-13.7 11.8-23.7 11.8-17.5 0-30.2-12.5-30.2-30s12.7-30 30.2-30c10.1-.2 19.2 4.4 23.8 12z"/>
        <path id="C" class="st0" d="m263.1 31.8-6.1 4.1c-3.8-5.7-10.1-9.2-17.7-9.2-12.9 0-22.6 9.3-22.6 23s9.7 23 22.6 23c7.5 0 13.9-3.4 17.7-9.1l6 4.4c-4.9 7.3-13.7 11.8-23.7 11.8-17.5 0-30.2-12.5-30.2-30s12.7-30 30.2-30c10.1-.2 19.2 4.4 23.8 12z"/>
        <path id="O" class="st0" d="M201.1 49.7c0 17.5-12.7 30-30.2 30s-30.2-12.5-30.2-30 12.7-30 30.2-30 30.2 12.6 30.2 30zm-52.8 0c0 13.7 9.7 23 22.6 23s22.6-9.3 22.6-23-9.7-23-22.6-23-22.6 9.3-22.6 23z"/>
        <path id="R" class="st0" d="M133.1 37.1c0 10.2-7.9 16.7-20.4 16.7h-.5L132.8 79h-9.1l-20-25.2h-6.8V79h-7.4V20.6h23.1c13.2 0 20.5 5.8 20.5 16.5zM96.8 47h15.7c8.6 0 13-3.4 13-9.9s-4.5-9.6-13-9.6H96.8V47z"/>
    </g>
    <g id="Logo">
        <path id="d" d="M37.7 47h24.4L60 20.7H4.4v6.6h24.3c-.3 4.8-.9 9.1-1.6 13H2.5L4.4 47h21.1c-1 3.6-2.3 6.6-3.8 9.1C17.4 62.8 10.2 68.7 0 73.6l4.7 5.7c11.1-5.8 19.1-12.6 23.8-20.5 1.5-2.4 2.6-5.2 3.8-8.6 5.2 12.4 14.4 22.1 27.7 29l4.6-5.7c-13-6.2-22-15-26.9-26.5zm-1.6-19.7h18.1l.6 13H34.5c.6-3.8 1.1-8.2 1.6-13z" style="fill-rule:evenodd;clip-rule:evenodd;fill:#43b59e"/>
    </g>
    <g id="Mela">
        <path id="f" d="M779.7 27.2c-.5.3-8.6 5-8.6 15.2 0 11.8 10.4 16 10.7 16.1-.1.2-1.7 5.7-5.5 11.3-3.4 4.9-7 9.8-12.4 9.8s-6.8-3.2-13.1-3.2-8.3 3.3-13.3 3.3-8.4-4.5-12.4-10.2c-4.6-6.5-8.3-16.8-8.3-26.4 0-15.5 10.1-23.8 20-23.8 5.3 0 9.6 3.4 13 3.4 3.3 0 8.1-3.7 14.1-3.7 2.3.3 10.4.5 15.8 8.2zM761 12.7c2.5-2.9 4.2-7 4.2-11.1 0-.6-.1-1.1-.2-1.6-4 .2-8.8 2.7-11.7 6-2.3 2.6-4.4 6.7-4.4 10.8 0 .6.1 1.3.2 1.4.2.1.7.1 1.1.1 3.6.1 8.2-2.3 10.8-5.6z" style="fill:#43b59e"/>
    </g>
</svg>