<?xml version="1.0" standalone="no"?>
<!DOCTYPE svg PUBLIC "-//W3C//DTD SVG 20010904//EN"
 "http://www.w3.org/TR/2001/REC-SVG-20010904/DTD/svg10.dtd">
<svg version="1.0" xmlns="http://www.w3.org/2000/svg"
 width="700.000000pt" height="700.000000pt" viewBox="0 0 700.000000 700.000000"
 preserveAspectRatio="xMidYMid meet">
<metadata>
Created by potrace 1.14, written by Peter Selinger 2001-2017
</metadata>
<g transform="translate(0.000000,700.000000) scale(0.100000,-0.100000)"
fill="#000000" stroke="none">
<path d="M644 6501 c-2 -2 -4 -154 -4 -338 l0 -333 38 -1 c20 0 580 0 1244 -1
l1208 0 -4 -41 c-2 -23 -7 -80 -11 -127 -7 -86 -10 -119 -20 -220 -3 -30 -7
-77 -10 -105 -9 -93 -21 -203 -30 -275 -3 -19 -7 -55 -10 -79 -3 -23 -7 -55
-9 -70 -2 -14 -7 -48 -11 -74 -4 -27 -8 -56 -10 -65 -1 -10 -6 -39 -9 -67 -7
-56 -24 -159 -31 -191 l-5 -22 -1256 -1 c-691 0 -1258 -2 -1261 -4 -2 -2 29
-116 68 -253 39 -137 72 -256 75 -264 2 -8 12 -46 22 -85 l18 -70 1082 -3
c902 -2 1082 -4 1082 -16 0 -19 -91 -294 -129 -391 -46 -116 -141 -324 -168
-367 -13 -21 -23 -40 -23 -43 0 -20 -216 -340 -287 -425 -167 -200 -231 -269
-396 -425 -133 -127 -141 -134 -267 -236 -337 -273 -709 -512 -1155 -740 -88
-45 -164 -85 -168 -89 -5 -4 -2 -14 5 -21 7 -8 74 -88 148 -179 74 -91 137
-167 140 -170 3 -3 43 -51 88 -107 46 -57 85 -103 88 -103 22 0 396 210 594
333 140 87 389 253 460 307 19 14 64 48 100 75 419 315 770 659 1042 1022 204
272 353 537 472 838 26 66 52 127 56 136 5 9 25 65 46 125 20 60 40 113 44
117 4 5 22 -26 40 -69 18 -43 36 -85 40 -93 5 -9 45 -89 89 -179 113 -227 197
-374 317 -556 10 -16 24 -36 29 -45 17 -27 49 -75 58 -86 4 -5 50 -68 103
-139 244 -330 554 -660 864 -921 52 -44 97 -82 100 -85 9 -10 185 -147 245
-191 33 -24 62 -47 63 -51 2 -5 9 -8 16 -8 7 0 21 -8 32 -18 19 -18 301 -208
339 -228 11 -6 61 -36 110 -66 102 -62 301 -174 359 -202 34 -16 41 -17 50 -4
6 8 66 82 133 164 273 336 322 399 315 405 -4 4 -68 37 -142 75 -177 89 -431
235 -605 348 -119 77 -419 288 -435 305 -3 4 -39 33 -80 66 -41 32 -77 61 -80
64 -3 4 -39 35 -80 71 -41 36 -84 74 -96 85 -263 248 -431 433 -620 680 -66
86 -270 387 -285 420 -5 11 -19 36 -30 55 -86 140 -279 527 -279 556 0 2 563
4 1250 4 l1251 0 -5 58 c-3 31 -8 84 -10 117 -3 33 -8 96 -11 140 -4 44 -8 96
-10 116 -2 21 -7 79 -10 130 -4 52 -8 110 -10 129 -2 19 -6 78 -10 130 -4 52
-8 112 -11 133 -2 21 -6 71 -9 110 -5 67 -7 100 -20 245 -3 31 -7 89 -10 127
-3 39 -7 93 -10 120 -2 28 -7 84 -10 125 -7 103 -15 205 -20 270 -10 114 -15
177 -20 240 -8 124 -15 215 -20 255 -5 46 -18 214 -18 233 0 6 -5 13 -11 13
-31 4 -5688 3 -5692 0z m5107 -735 c0 -33 2 -88 4 -121 4 -80 14 -301 20 -450
3 -66 7 -160 10 -210 10 -210 18 -413 19 -450 l1 -40 -1038 -1 -1038 -1 6 36
c3 20 13 86 21 146 8 61 17 122 19 136 3 15 7 47 10 70 3 24 8 62 11 84 11 77
13 91 19 155 4 36 8 76 10 90 2 14 6 54 9 90 4 36 9 81 11 100 2 19 7 64 10
100 4 36 8 81 10 100 2 19 7 71 11 115 6 68 10 105 13 111 1 1 420 2 931 2
l930 0 1 -62z"/>
</g>
</svg>
